<svg version="1.1" id="Capa_1" xmlns="http://www.w3.org/2000/svg" x="0" y="0" viewBox="0 0 455 40" xml:space="preserve">
  <g fill="#fff">
    <path d="M405.4 5.6c-2.3-1.2-4.3-.7-5.5-.1-.7.4-1.5 0-1.8-.7-1.2-3.4-3.6-3.8-5.2-3.6-.8.1-1.3.8-1.1 1.6 1.2 4.6 0 9.4-1.2 12.6-.4 1.1-2 1.1-2.4 0-2-5.3-5.7-3.5-6-3.3h-.1c-.4.2-3.4 1.5-6.7 1.5-3.5 0-5-1.7-8.2-1.7h-7.1c-.4 0-.8-.2-1-.5-.6-.8-1.9-2.2-4.4-2.2-3.4 0-4.8 2.9-5.2 4.5-.2.5-.6.9-1.1.9-5.4 0-7.6 2.3-8.2 4.3-.6 2-4 17.4-4 17.4h-15.4v-8.7h6.1v-2.9h-9.2v14.5h33c2.6 0 4.4-.4 3.8-4.3l-.3-1.9c-.1-.8.4-1.5 1.2-1.5l23.7-1c.9 0 1.5.8 1.3 1.7-.1.2-.1.4-.2.6-.3.7.1 1.6.9 1.8.1 0 .2 0 .3.1 2.8.5 5.6-.9 6.7-3.5.6-1.4 1.7-3.4 3.6-5.3 3.2-3.2 4.7-5.8 7.8-11.5 1.7-3.1 4.5-5.4 6.3-6.7.5-.5.4-1.6-.4-2.1zM385 15.7c.6-.6.6-1.5.2-2.3l.3.3c.9.9 1 2.2.3 2.9-.7.8-2.1.7-3-.2-.2-.2-.4-.4-.5-.7.9.6 2 .6 2.7 0zm-2.5-2.1s-3.5 4.9 2.3 4.3c3.2-.3 3.7 1.4 2.1 1.8-1.6.4-6.8 1.1-6.9-2.3-.1-2.8 2.5-3.8 2.5-3.8zm-25.1-.8c.4 1.6-2.6 2.6-2.6 2.6l.6 1.7c2.4-.5 5.3-3 5.3-3h8.9l1.1 2.5c.2.5-.1 1-.6 1.1-.3.1-.7-.1-.8-.4l-.6-1.3h-8.5l.2 1.5c.1.8-.5 1.5-1.3 1.5-2.7-.1-8-.6-8-3.8-.1-4.5 5.7-5 6.3-2.4zm10.6 4.6c0 1.4-1.1 2.5-2.5 2.5s-2.5-1.1-2.5-2.5c0-.3.1-.6.2-.9.2 1.1 1.2 2 2.5 2 1.1 0 2-.6 2.3-1.5v.4zm-27.7 19l.8-3.3 11 .6.3 2.7h-12.1zm20.8-8.6c-.1.7-.6 1.2-1.3 1.3-.9.1-2.2.1-3.6-.1-.8-.1-1.4-.7-1.6-1.4-.4-1.6-1.3-4.1-3.5-4.1-2.3 0-2.5 3.8-2.5 6 0 .9-.7 1.6-1.6 1.6l-4-.2c-.7 0-1.3-.7-1.2-1.3l2.2-9.5c.5-2.3 1.3-3.1 4.1-3.1.5 0 1 0 1.4.3 1.6 1.1 6.6 4.2 13.4 4.2 7.5 0 8.7-1.8 10.1-4.9.3-.7 1-1.1 1.7-1.1l2.1-.1c.7 0 1.3.4 1.6 1.1l1.1 3.5c.3.9 0 2-.8 2.6-1 .8-2.8 1.5-6.2 1.5-6.3-.3-10.9-.8-11.4 3.7zm22.3 3.8c-.4.3-.9 0-.8-.5.4-1.4.7-3.5.4-5-.1-.4.3-.7.7-.5 2.9 1.6 1.4 4.5-.3 6zm4.3-7.5s-1.6-2.6-5.7.3-11.8 2.5-11.8 2.5v1.6l11.4-1-.1 1.6-17.1.8s-3-3.1 1.3-4.3c4.2-1.2 10.5.7 16.3-3 3.9-2.5 6.3.6 6.3.6l-.6.9zm14-15.8c-1.3 1.2-3.2 3.3-4.9 6.3-2.4 4.4-3.6 7.4-5.7 8.9-.5.4-1.2-.2-.9-.7 1.7-3.5 5.3-12.3 3.5-18.5-.1-.5.3-.9.8-.8 1 .3 2.3 1.4 2.5 5.2 0 .5.6.8 1.1.5.8-.6 1.9-1.4 3-1.8.6-.4 1.1.4.6.9zM305.4 24.8v2.9h6.2v8.7h-15.4V19H287v17.4h-15.4v-8.7h6.1v-2.9h-9.2v14.5H290V21.9h3.1v17.4h21.5V24.8z"/>
    <path d="M308.5 30.6h-6.2v-8.7H330v8.7h-6.1v2.9h9.2V19h-33.8v14.5h9.2zM256.2 24.8v2.9h6.2v8.7H247V19h-9.2v17.4h-15.4v-8.7h6.1v-2.9h-9.2v14.5h21.5V21.9h3.1v17.4h21.5V24.8z"/>
    <path d="M259.3 30.6h-6.2v-8.7h27.7v8.7h-6.1v2.9h9.2V19h-33.8v14.5h9.2zM207 27.7h6.2v8.7h-15.4V19h-9.2v17.4h-15.4v-8.7h6.1v-2.9h-9.2v14.5h21.5V21.9h3.1v17.4h21.5V24.8H207z"/>
    <path d="M210.1 33.5v-2.9h-6.2v-8.7h27.7v8.7h-6.1v2.9h9.2V19h-33.8v14.5zM157.8 27.7h6.2v8.7h-15.4V19h-9.2v17.4H124v-8.7h6.1v-2.9h-9.2v14.5h21.5V21.9h3.1v17.4H167V24.8h-9.2z"/>
    <path d="M160.9 30.6h-6.2v-8.7h27.7v8.7h-6.1v2.9h9.2V19h-33.8v14.5h9.2zM108.6 24.8v2.9h6.2v8.7H99.4V19h-9.2v17.4H74.8v-8.7H81v-2.9h-9.3v14.5h21.6V21.9h3v17.4h21.5V24.8z"/>
    <path d="M111.7 30.6h-6.2v-8.7h27.7v8.7h-6.1v2.9h9.2V19h-33.8v14.5h9.2zM59.4 24.8v2.9h6.2v8.7H50.2V19h-3.1v20.3h21.6V24.8z"/>
    <path d="M62.5 30.6h-6.1v-8.7H84v8.7h-6.1v2.9h9.2V19H53.3v14.5h9.2z"/>
  </g>
</svg>
