<svg xmlns="http://www.w3.org/2000/svg" viewBox="0 0 20 20">
  <defs/>
  <style>
    .st0{fill:#fff}
  </style>
  <g id="Art">
    <path d="M17.1 2.9C15.2 1 12.7 0 10 0 7.3 0 4.8 1 2.9 2.9 1 4.8 0 7.3 0 10s1 5.2 2.9 7.1S7.3 20 10 20c2.7 0 5.2-1 7.1-2.9C19 15.2 20 12.7 20 10s-1-5.2-2.9-7.1zm-.6 13.6c-1.7 1.7-4.1 2.7-6.5 2.7s-4.8-1-6.5-2.7C1.8 14.8.8 12.4.8 10s1-4.8 2.7-6.5C5.2 1.7 7.5.8 10 .8s4.8 1 6.5 2.7c1.7 1.7 2.7 4.1 2.7 6.5s-.9 4.8-2.7 6.5z" class="st0"/>
    <path d="M12.7 11.2l3.5-2.6h-4.4L10 4.1 8.2 8.6H3.8l3.7 2.6-1.9 4.7 4.4-2.6 4.4 2.6z" class="st0"/>
  </g>
</svg>
