<svg xmlns="http://www.w3.org/2000/svg" viewBox="0 0 238.3 98.04" style="enable-background:new 0 0 238.3 98.04" xml:space="preserve">
  <path d="M23.61 9.93c-4.96.57-10.01 2.62-13.65 5.57-3.32 2.68-5.29 6.4-5.29 9.97 0 1.37.43 1.72 2.01 1.64 1.02-.05 1.14-.18.64-.74-.45-.51-.7-1.42-.71-2.58-.01-2.14 1.08-4.46 3.05-6.49 1.84-1.9 3.91-2.92 6.5-3.22 2.02-.23 6.49.17 11.13 1 4.53.81 5.68 1 7.23 1.19l1.55.19-1.46.48c-2.74.9-6.05 2.76-8.81 4.96-1.42 1.13-3.99 3.69-4.97 4.96C19.52 28.55 10.3 41.2 7.06 45.74 3.95 50.1 3.9 50.17 2.7 51.31c-.8.79-1.11 1.16-1.07 1.29.08.2.04.21 1.66-.22 2.23-.59 4.51-.57 7.65.07 2.18.44 3.77.49 4.46.12.91-.49 1.4-1.35.72-1.27-1.23.15-2.1.12-4.1-.14-1.2-.16-2.56-.29-3.03-.29h-.85l.39-.18c.21-.1.75-.35 1.19-.55 1.74-.8 3.77-2.42 5.11-4.07.34-.41 4.09-5.53 8.35-11.38 4.26-5.85 8.16-11.15 8.68-11.78 1.95-2.39 4.4-4.57 6.18-5.5 1.24-.64 1.82-.78 3.35-.78 5.59 0 12.54-1.18 16.11-2.73 1.62-.7 2.9-1.69 3.07-2.38.1-.39-.02-.51-.5-.51-.33 0-.46.06-.6.29-.27.42-1.39.89-2.59 1.1-.86.15-1.54.17-3.85.12-3.59-.07-5.37-.27-13.27-1.5-6.09-.94-9.05-1.22-12.72-1.2-1.44.01-2.98.06-3.43.11z"/>
  <path d="M95.08 26.95c-2.83.5-6.77 2.37-9.75 4.64-1.59 1.21-3.48 3.27-4.64 5.02-.28.43-.44.59-.46.46-.07-.38-.42-.17-.89.55-2.56 3.89-6.3 7.73-8.71 8.96-1.65.84-3.19.89-3.19.11 0-.62.64-1.44 3.58-4.57 3.37-3.59 4.86-5.48 5.93-7.53.87-1.67 1.12-2.55 1.11-3.96 0-.95-.05-1.27-.26-1.81-.74-1.87-2.61-2.45-4.68-1.47-2 .95-4.14 2.7-7.94 6.5-1.57 1.58-2.81 2.79-2.74 2.71 1.84-2.38 4.41-5.64 5.58-7.08.84-1.04 1.51-1.95 1.49-2.04-.03-.15-.44-.17-3.07-.2l-3.03-.03-3.33 4.34c-2.07 2.7-3.39 4.32-3.47 4.29-.08-.03-.75.64-1.61 1.63-1.9 2.18-5.14 5.42-6.57 6.56-2.54 2.03-4.49 3.08-6.11 3.28-.51.06-.62.04-.9-.17-.29-.23-.31-.29-.27-.9.09-1.28.61-2.05 7.16-10.66 3.43-4.5 6.03-8.02 6.03-8.14 0-.22-.03-.23-3.16-.2l-3.16.03L46.75 29c-.7.96-1.28 1.72-1.3 1.7-.02-.02.02-.2.08-.41.06-.21.11-.7.11-1.1-.01-1.77-1.22-2.43-3.77-2.06-2.79.41-6.51 2.08-9.41 4.22-3.98 2.93-6.72 7.17-7.18 11.09-.31 2.63.55 4.83 2.23 5.69.72.37 2.22.42 3.17.1 1.85-.62 4.02-2.41 6.35-5.23.47-.57.87-1.02.89-1 .02.02-.04.24-.13.5-.3.86-.43 2.22-.29 3.04.3 1.76 1.22 2.73 2.87 3.03 2.78.51 6.2-1.14 10.1-4.87l1.18-1.13-.85 1.1c-2.47 3.2-2.74 3.58-2.68 3.74.06.14.48.16 3.02.16h2.95l.93-1.17c2.63-3.29 8.72-9.72 12.56-13.24 4.08-3.75 6.79-5.51 7.47-4.83.5.5-.24 1.52-3.65 5.02-4.46 4.58-5.95 6.54-6.75 8.89-.72 2.11-.12 4.91 1.26 5.8.61.4 1.07.53 1.88.52 3.49-.01 7.34-3.18 11.21-9.24.45-.7.84-1.3.88-1.33.03-.03-.12.31-.35.76-.9 1.81-1.34 3.74-1.24 5.5.14 2.43 1.33 3.91 3.3 4.07 1.8.14 4.45-1.21 7.28-3.73.97-.86 1.29-1.3-3.71 5.13-4.39 5.65-6.53 8.35-7.85 9.88-1.24 1.44-1.23 1.67.1 1.3.44-.12 1.77-.4 2.95-.61 4.58-.83 7.33-1.78 10.32-3.55 2.43-1.45 4.21-2.9 6.86-5.61 2.34-2.39 5.35-6.01 8.07-9.72.15-.2.18-.22.14-.07-.94 3.08-.73 5.33.6 6.48.56.48 1.27.69 2.26.68 1.45-.02 2.94-.65 4.74-1.99 1.02-.77 3.74-3.43 4.51-4.42.5-.65.65-.72.44-.21-.3.73-.53 2.29-.46 3.27.15 2.36 1.34 3.57 3.49 3.56 1.49-.01 2.96-.62 4.79-1.99 1.25-.94 3.52-3.2 5.06-5.05.66-.79 1.25-1.5 1.32-1.58.07-.08.01.32-.13.88-1.06 4.2.42 7.47 3.45 7.66 2.14.14 4.77-.8 7.7-2.76 1.98-1.32 4.71-3.63 6.59-5.58.54-.56.94-.95.89-.87-.05.08-1.39 1.87-3 4-1.61 2.12-2.93 3.96-2.96 4.1l-.05.25h6.26l.95-1.24c2.81-3.7 9.64-11.22 12.83-14.14.7-.63 1.27-1.13 1.29-1.11.02.02-.04.31-.13.64-.46 1.71.52 2.69 2.32 2.32 2.42-.5 4.68-3.08 4.69-5.36 0-.52-.05-.75-.24-1.04-.46-.68-.77-.83-1.71-.83-.77 0-.94.04-1.78.45-2.15 1.03-6.11 4.59-9.58 8.6-.38.44-.72.8-.75.8-.06 0-.22.21 3.61-4.73 1.79-2.31 3.25-4.28 3.25-4.38 0-.17-.25-.19-2.98-.21l-2.98-.03-1.64 2.17c-.91 1.2-1.86 2.4-2.14 2.67-.27.27-1.14 1.21-1.94 2.09-1.6 1.76-5.26 5.41-6.81 6.79-4.54 4.02-8.51 6.32-10.89 6.31-1.1 0-1.49-.47-1.29-1.53.15-.77 1.02-2.54 1.8-3.68l.59-.86 1.64-.66c5.36-2.15 9.7-5.06 11.44-7.68.85-1.28 1.17-2.24 1.17-3.56 0-1.42-.63-2.24-1.98-2.59-.61-.16-.84-.16-1.56-.05-3.83.58-10.59 5.06-13.5 8.93-1.64 2.18-4.89 5.72-7.04 7.67-2.48 2.24-4.97 3.78-6.18 3.82-.4.01-.61-.03-.68-.15-.32-.48.39-2.17 1.56-3.74.34-.45 3.25-4.17 6.47-8.26 3.22-4.09 5.84-7.51 5.83-7.6-.02-.14-.48-.17-3.22-.19l-3.19-.02-2.09 2.78c-2.92 3.87-5.19 6.66-7.04 8.67-3.7 4-5.93 6.08-7.86 7.33-1 .65-1.73.93-2.38.93-.83 0-.91-.52-.28-1.84.52-1.1.96-1.67 7.11-9.5 6.78-8.62 6.38-8.09 6.28-8.25-.05-.08-1.07-.12-3.25-.12h-3.17l-3.8 4.82c-2.09 2.65-3.99 5.09-4.22 5.42-.23.33-.53.71-.66.83s-.75.86-1.38 1.65c-3.46 4.34-8.24 9.47-11.42 12.26-1.2 1.05-2.85 2.27-4.02 2.98-1.07.65-3.57 1.86-4.54 2.21l-.76.27.67-.69c.37-.38 5.62-7.11 11.66-14.95 6.04-7.84 11.04-14.32 11.09-14.4.07-.09.06-.19-.03-.3-.11-.14-.61-.17-3.24-.17h-3.11l-1.42 1.97c-.78 1.08-1.44 1.95-1.46 1.93-.02-.02.04-.28.13-.57.45-1.39.32-2.54-.37-3.23-.67-.67-1.86-.82-3.84-.47zm2.56 1.14c1.1.31 1.1 1.65-.03 4.01-2.8 5.89-11.53 14.41-15.15 14.78-.54.05-.6.04-.77-.23-.16-.25-.17-.36-.06-.8.16-.63.57-1.46 1.06-2.16.43-.6 8.66-11.08 9.67-12.31 1.61-1.96 2.71-2.86 3.97-3.26.57-.17.79-.17 1.31-.03zm52.3.19c.3.34.32.65.08 1.37-.86 2.59-4.36 6.54-7.73 8.73-.97.63-3.7 2.1-3.76 2.03-.02-.02 1.67-2.2 3.75-4.83 4.06-5.14 5.5-6.72 6.56-7.21.69-.33.88-.34 1.1-.09zm-105.91.04c1.48.67-.38 5.06-4.13 9.74-4.96 6.18-8.07 8.97-10.21 9.15-.85.07-1.06-.1-1.05-.81.03-1.76 3.09-6.23 9.53-13.96 2.01-2.41 3.37-3.6 4.65-4.03.66-.24.84-.25 1.21-.09zM183.03 27.09c-3.91.61-8.79 3.36-12.1 6.81-4.02 4.18-5.7 9.36-4.1 12.57.88 1.76 2.6 2.46 4.69 1.92 1.97-.51 4.22-2.35 6.85-5.61 1.31-1.62 1.32-1.63 1.11-1.12-.59 1.43-.81 3.76-.46 4.93.22.76.89 1.55 1.53 1.81.61.25 1.88.25 2.84 0 2.55-.66 5.9-3.36 8.59-6.93.26-.34.49-.61.51-.58s-.03.21-.12.42c-.35.86-.53 2.07-.48 3.33.04 1.06.09 1.33.35 1.9.82 1.8 2.58 2.42 4.61 1.62 1.54-.61 3.78-2.24 6.3-4.58l1.21-1.13-.72.94c-.4.51-2.15 2.8-3.89 5.07-4.81 6.25-6.75 8.65-9.7 11.98l-.52.58.26.28c.31.33.39.33 1.35-.01.43-.16 2.17-.65 3.88-1.09 3.74-.98 5.87-1.63 7.86-2.41 4.12-1.61 6.76-3.28 9.44-5.96 1.58-1.58 2.52-2.77 3.55-4.5 2.14-3.6 2.58-7.2 1.17-9.6-.3-.51-.35-.54-.6-.37-.13.08-.13.19.05.74.9 2.87-.43 7.03-3.53 11.01-2.82 3.63-7.64 6.78-13.13 8.59-.81.27-1.52.47-1.57.45-.05-.02.27-.47.71-1.02 3.3-4.04 22.87-29.08 22.84-29.22-.03-.16-.38-.18-3.06-.2l-3.03-.03-2.44 3.17c-3.55 4.61-5.82 7.15-9.34 10.48-4.8 4.54-7.91 6.59-8.61 5.67-.28-.37-.12-1.35.37-2.26.28-.52 2.61-3.44 6.95-8.7 3.88-4.7 6.53-8.01 6.53-8.14 0-.22-.06-.23-3.28-.23h-3.28l-4.15 5.1c-3 3.69-4.21 5.1-4.37 5.09-.14-.01-.5.34-1.09 1.07-3.19 3.93-6.1 6.59-8.55 7.8-.95.47-1.26.57-1.91.62-.76.05-.78.05-.91-.23-.17-.37-.02-.95.52-1.93.5-.93.38-.76 7.25-9.49 3.31-4.21 6.01-7.73 6.01-7.83 0-.18-.22-.2-3.05-.23-1.69-.02-3.11-.02-3.18 0-.07.02-.88 1.07-1.81 2.33-1.51 2.06-2.01 2.66-1.65 1.99.23-.43.56-2.06.56-2.78 0-.88-.32-1.59-.86-1.9-.47-.26-1.48-.33-2.4-.19zm1.9 1.43c.56.56.11 2.61-1.1 4.99-.85 1.68-1.75 3.04-3.37 5.1-3.98 5.05-6.79 7.71-8.94 8.48-.99.35-1.6.35-1.95 0-.32-.32-.33-.38-.1-1.18.53-1.8 2.58-4.8 7.73-11.28 3.49-4.39 4.81-5.65 6.47-6.17.63-.2 1.01-.18 1.26.06zM82.91 67.52c-3.22.32-5.7 2.37-6.68 5.49-.22.72-.26 1.05-.25 2.48 0 1.49.03 1.74.3 2.53.42 1.25 1 2.18 1.95 3.14.92.92 1.85 1.47 3.19 1.89.72.22 1.05.26 2.59.26 1.54 0 1.87-.03 2.59-.26 1.38-.43 2.28-.97 3.26-1.95 1.03-1.03 1.66-2.16 2.04-3.69.33-1.33.26-3.42-.17-4.68-1.27-3.7-4.55-5.64-8.82-5.21zm2.3 2.9c1.1.23 1.86.63 2.62 1.35.77.74 1.13 1.31 1.43 2.24.38 1.21.2 2.77-.43 3.84-1.08 1.85-3.37 2.96-5.48 2.65-1-.14-1.26-.22-2.06-.64-2.02-1.04-3.14-3.49-2.58-5.62.26-.97.63-1.6 1.38-2.36 1.36-1.34 3.18-1.87 5.12-1.46zM52.46 78.85v10.9h3.2l.03-8.25.03-8.25 6.44 8.24 6.44 8.24 1.57.01 1.57.01v-21.8h-3.08v8.26c0 4.55-.04 8.26-.08 8.25-.05 0-.18-.14-.3-.3-.12-.16-3.02-3.88-6.43-8.25l-6.22-7.96h-3.16v10.9h-.01zM100.69 69.54v1.6h9.36v18.61H113.24V71.14H122.61V67.95h-21.92v1.59zM127.67 78.83v10.92h18.28v-3.08h-15.2v-6.72h7.38v-3.08h-7.38v-5.73h14.64v-3.08h-8.29c-4.56 0-8.55-.03-8.87-.07l-.58-.07v10.91h.02zM152.34 78.9v10.85h3.08l.03-8.28.03-8.28 6.48 8.28 6.48 8.28h3.17V68.06h-3.08v8.21c0 5.05-.04 8.2-.11 8.18-.06-.02-2.99-3.72-6.5-8.21l-6.4-8.18h-3.18V78.9zM1.81 79.07v1.1h44.15v-2.2H1.81v1.1zM177.33 79.07v1.1h44.16v-2.2h-44.16v1.1zM83 87.01c-.67.2-1.15 1.1-.98 1.81.04.16.23.46.43.68.82.9 2.32.43 2.55-.79.21-1.1-.89-2.04-2-1.7z"/>
</svg>
