<svg version="1.1" id="Capa_1" xmlns="http://www.w3.org/2000/svg" x="0" y="0" viewBox="0 0 993 788" xml:space="preserve">
  <path d="M962.2 285.9c-1.4-1.2-1.9-1-3.7 1.6-8.1 11.5-32.3 30.4-63.7 49.5-20.5 12.5-39.6 27.4-58.3 45.4-4.4 4.2-8.1 7.6-8.3 7.6-.9 0 11-21.6 16.2-29.7 7-10.7 11.5-15.6 17.9-19.1 8.1-4.6 17.1-17.6 27.4-39.2 18.7-39.6 29.4-82 25.2-99.6-1.3-5.4-3.2-7.6-5-5.8-.5.5-3 10.8-5.5 22.9-5 24.4-8.2 36.8-12.1 47.1-2.7 7.4-7 15.4-8.2 15.4-3.2 0-28.1 27.7-52.7 58.7-6.6 8.3-12.1 15-12.3 14.8-.2-.2 3.6-10.1 8.4-22.2 4.7-12 10.4-27.2 12.6-33.8 4.2-12.7 9.8-33.8 9.8-36.7 0-1 2.2-5.6 4.9-10.4 5.1-8.8 7.1-15.8 5.3-17.6-1.9-1.9-4 0-5.7 5.1-3.5 10.6-20.2 30.6-42.4 50.8-6.9 6.2-12.6 11.1-12.8 10.9-.2-.1.6-4.7 1.7-10.2 7.2-34.9 23-121.4 25.9-142.4.6-4.1 1.5-10.7 2.1-14.7 1.6-11.3 1.3-37.5-.4-39.9-1.4-1.8-1.5-1.8-2 .6-.2 1.4-1 7.7-1.6 14-2.9 31.1-5.3 46.4-9.2 57.9-1.6 5-3.5 7.9-8.7 13.6-3.6 4-9.5 12.1-13.1 18.1-8.3 14-25.7 49-35.4 71.4-4.2 9.6-8.2 18.7-8.9 20.3l-1.2 2.7-6.9-9c-5.2-6.9-7.4-9-9.2-9-4.7 0-2.3 5.4 8.5 18.7 4.7 5.8 5 6.5 3.9 9-.7 1.6-1.3 3-1.4 3.1-.1.2-3.6-2.1-7.7-5.2-4-3.1-8.4-5.6-9.6-5.6-1.6 0-2.1-.5-1.7-1.7.2-1 1.8-7.5 3.5-14.5 8.3-33.5 13.1-44.5 73.4-166.8l21.4-43.5 4.4-1.9c2.4-1 6.7-2.9 9.5-4.1 5.4-2.4 7.2-4.1 5.8-5.5-.8-.7-20.6 4.9-23.9 6.8-1.9 1-20.1 23.4-31.5 38.7-38.5 51.6-67.9 105-82.3 149.5-2.2 6.9-4.2 12.7-4.4 12.9-.2.3-2-1.1-4.1-3.1-7.9-7.4-15.5-11-28.1-13.2l-7.6-1.3 4.4-2.2c8.4-4.4 17.6-2.9 29.5 4.7 5.5 3.5 8.6 4.1 8.6 1.6s-6.3-8-13.3-11.4c-12.1-5.9-24.1-4.8-33 3.1-2.6 2.2-5 5.1-5.3 6.4l-.6 2.2-7.3-2.3c-4.1-1.3-10.2-2.7-13.7-3.1l-6.3-.8-1.4-5c-1.1-3.6-1.5-11.2-1.5-27.5-.1-26.1 1.4-36.7 9-64.3 8-29.3 12.8-58 13.9-82.2.3-7.7 1.1-17.1 1.7-21 .6-3.8 1.2-11.9 1.2-18 .1-12.7-1.9-18.7-6.3-19.3-2.1-.3-2.3-.1-1.7 2 1.8 6 2.6 9.6 2.6 12.9 0 2.9-.4 3.8-2.1 4.2-2 .5-2.1.9-1.4 10.9.6 9.3.4 11.5-1.9 21.1-5.5 22.1-17.8 52.6-30.2 74.4-3.6 6.3-7.4 13.8-8.6 16.6-8 20.2-15.4 64.3-15.9 95-.1 8.1-.4 9.9-1.9 10.7-2.9 1.6-8 12.5-10.2 22.2-2 8.4-2.2 11.8-2 36.6.1 26.9 2.4 80.8 4.2 101.2.9 10.6-.3 38.9-1.9 43.2-.5 1.3-1.2-2.6-1.9-10.8-1.5-16.7-4.1-31.6-10.2-59.4-5.3-23.8-15.1-61.1-17.4-66.3-.8-1.8-1.7-6.2-2-9.9-.7-7.3-5.9-33.9-10.1-51.3-3.4-14.2-11.8-55.9-14.4-71.2-5-29.6-7.7-70.9-5.1-77.3 1.3-3.2.6-5.5-1-3-1.9 2.9-1-1 1.6-7.5 1.5-3.6 2.4-6.9 2-7.2-1.6-1.7-8.7 9-11.1 16.7-.4 1.4-4.4 11.3-8.8 22-12.9 31.4-12.9 31.4-20.2 60-3.2 12.8-11.6 55.3-13.1 66.8-.7 5.9-.9 5.9-10.5 4.2-3-.5-7-1.2-9-1.5l-3.6-.5-.6-9.3c-1.5-22.5-10.4-48.5-42.7-124.2C361.7 61.2 361.3 60 360.6 32c-.4-14.1-1.7-20.8-3.7-19.5-.6.3-1.1 5.9-1.1 12.8-.1 6.7-.4 11-.6 9.5-.5-3.1-1.8-3.7-2.7-1.3-.9 2.3.4 13.5 2 17.8 1.1 2.8 1.7 13 2.5 38.5.5 19.1 1.3 41.2 1.7 49.2.7 13.8.8 14.5 2.9 14.8 1.3.2 2.7-.5 3.7-1.9.8-1.3 1.8-2 2.1-1.7 2.2 2.1 6.2 42.8 4.2 42.8-.3 0-3.9-6.4-8-14.2-8.9-17.3-20.9-37.8-36.8-63.3-16.5-26.6-21.1-33-23.3-33-1.1 0-2.1.5-2.3 1-.2.6 3.1 6.9 7.3 14 5.1 8.7 8.7 16.4 11 23.4 8.7 26.3 17.1 54.5 22.4 75.1 3.2 12.4 8.2 31.5 11 42.5 6.8 26.2 8.4 33.7 12.4 60 5.8 37.7 6.8 55.7 3.6 64l-1.2 3-1.6-3.5c-11.5-25.7-17-34.5-29.2-47.4-13.9-14.6-19-23.6-23.6-41.2-2.2-8.3-2.7-13-3.3-28.8-.4-13.2-1-19.1-1.8-19.3-2.3-.8-3.4 3.9-4.5 19-1.7 21.6-1.4 35.3 1.1 49.5 1.1 6.8 2.1 12.6 2.1 13 0 .3-2.5-3.6-5.5-8.8-11.7-19.7-17.3-26.1-42.5-48.2-19.1-16.7-37.5-35.5-46-47.1-19.5-26.3-26.9-44-27-64.4 0-5.4-.3-7.3-1.3-7.3-.8 0-1.8 1-2.4 2.2-.7 1.7-1.3.1-2.6-8.3-4.1-24.5-5-27.4-6.1-19.2-1.3 10.6 2 33.3 7.4 49.8 1.6 5 3.8 14.4 5 21 4.7 27.1 13.3 59.1 18.7 70 3.4 6.6 6.1 20.4 6.9 34.5l.6 11.5-4.4-4.5c-19.8-20.9-50.5-61.2-62.7-82.5-10.6-18.5-19.3-48.2-21.5-73.5-.3-3.6-.8-9.4-1.1-13-.6-7-2.8-10.8-4.5-8-.5.8-1 3.1-1 5.1 0 1.9-.6 4.1-1.2 4.8-2.3 2.2-1.5 29.6 1.1 42.1 6.2 29.7 21.8 63 45.6 97.2 6 8.7 10.2 14.2 30 39.3 6 7.6 9.7 13.8 15.6 26 4.2 8.8 8 17.1 8.4 18.5l.6 2.5-2.1-2.7c-1.2-1.6-11-10.6-21.8-20-30.9-27.2-80.6-71.2-94.8-83.9-7.1-6.3-14.4-12.8-16.3-14.5-18.6-16-24.8-22-26.3-25.4-1-2.1-3.2-10-4.9-17.7-6.2-27.5-13.5-47.8-19.3-53.2-2-1.9-2.9-2.2-3.8-1.3-.8.8-.7 1.7.4 3.4 2.6 4 7.7 16.6 10.3 25.7 3.1 10.4 7.7 30.3 7.1 30.8-.2.2-1.1-.9-2.1-2.4-7.8-12.3-21-30.3-22.1-30.3-1.7 0-1.8 3.3-.2 6.3 2.2 4.2 27.1 42.2 28.8 44.2 1 1.1 4.1 6.5 6.9 12 11.3 22.7 34.6 54.3 65.6 89.4 15.9 18 27.7 30.3 66.1 69.1 28.7 29 32.6 33.3 36.2 40.2 5.7 10.7 44.4 66.2 71.4 102.2 3.3 4.3 12.7 18 21 30.3 16.6 24.9 31 45.4 43.1 61.3 16.2 21.3 24.8 30.6 35.7 39 8.2 6.2 23 20.3 23 21.8 0 .5-3.9 1.2-8.6 1.5-5.2.4-9.6 1.2-11 2.2-2.2 1.4-2.4 2.2-2.4 9.4v7.9l7 11.8c9.3 15.6 10.7 17 19.1 18.8 3.3.7 5 5.4 2.5 6.8-7.3 4.1-21.3 17.6-24.5 23.7-1.4 2.5-3.2 18.7-2.4 20.8.8 2 3.1 1.6 6.7-1.2 3.2-2.4 3.8-2.5 20.9-2.8 17.5-.2 17.6-.2 18.2 2.1.6 2.4 2.5 2.8 5.5 1.2 1-.5 12.8-1.2 26.2-1.5 13.4-.3 27-1 30.3-1.5 8.1-1.3 10.5-1.2 10.5.4 0 .9 2.1 1.5 6.8 1.9 8.6.9 46.5.9 48.6.1 3.2-1.2 1.4-7.8-4.1-15.1-2.2-3.1-6.3-4.5-6.3-2.3 0 .6 1.4 2.9 3 5.2 4.8 6.7 4.6 6.8-9.3 6.8-6.8 0-17.9.3-24.5.7l-12.2.6v-2.6c0-2.1.9-3.1 4.2-4.8 7.7-4 15.2-6 24-6.6l8.7-.6 9.6-9.8 9.6-9.8 5.7.9c3 .5 5.9 1.3 6.4 1.8.9.9 4.2 13.3 5.3 19.9l.7 4.2-3.4-.9c-3.7-1.1-10.8-1.3-13.2-.4-.9.3-1.6 1.5-1.6 2.5 0 1.6.8 1.9 5.2 1.9 2.8 0 7.8.7 11 1.6 5.8 1.7 5.9 1.7 8.3-.6 1.4-1.3 2.5-3.2 2.5-4.2 0-2.8 2.1-2.2 8.3 2.2 7.4 5.3 11.8 7.1 17.8 7.2 4.4 0 5.4-.5 10.4-4.9 4.3-3.7 5.5-5.3 5.2-7-.2-1.3.2-2.8.9-3.4 1.3-1.1 2.4-1 10.7.8 4.7 1 3.3-2.6-7-17-7.9-11-10.5-14-13.5-15.2-2.3-.9-4.4-2.7-5.3-4.6-1.5-2.9-1.5-3.2.2-4.4 1-.8 4.6-2.6 8-4.1 3.4-1.5 6.4-3.2 6.6-3.8.2-.6-1-5.8-2.6-11.5-3-10-3-10.5-1.3-11.5 13.3-7.9 24.4-16.3 34.2-26 16.1-16 17.2-17.5 85.7-121.3 45.4-68.8 57.2-84.3 81.8-106.9 35.9-33.2 86-89.3 107.4-120.4 3.2-4.7 7.1-9.8 8.6-11.5 1.5-1.6 3.5-4.6 4.3-6.7 1.4-3.3 1.4-3.7-.1-4.9zM830.4 352c29.3-36.5 56.3-66.6 58.1-64.7 1 1-11.1 25.1-17 34-7.2 10.8-7.2 10.8-13.6 14.9-6.5 4.1-11.6 9.5-17.5 18.6-6.6 10.2-15.8 27.6-20.5 38.7-3.7 8.5-5.7 11.5-14.3 21.4-5.5 6.4-14.7 17.6-20.6 25-13.8 17.4-14 17.7-14.1 17 0-.3 7.1-15.2 15.9-33 8.7-17.8 17.1-35.5 18.7-39.2 1.6-3.7 4.7-8.7 6.9-11 2.2-2.4 10.3-12.1 18-21.7zm-22-50c4.4-3.5 14-12.3 21.3-19.5 15.5-15 15-15.9 6 11-8.7 26.1-17.7 48.2-35.5 87.5-15 32.9-53 108.7-65.5 130.2-2.1 3.8-6.9 12.5-10.5 19.5-13.2 25.7-17.8 32.8-28.3 44.5-11.9 13.2-22.5 27.1-29.5 38.7-11.2 18.4-18.8 29.1-27.6 38.9-8.6 9.5-13.1 13.2-9.7 8 3.3-5.1 16.2-26.4 27-44.8 25.4-43.2 42.6-74.5 58.4-106 20-40 26.3-55.5 32.4-80 4.7-18.7 12.1-40.4 20.2-59.5 8.5-19.8 26.7-55.3 30.3-58.9 1.7-1.7 6.6-6 11-9.6zm-62.5 16c19.5-52.7 51.5-118.5 64.4-132.3 2.2-2.4 4.1-3.7 4.3-3 .5 1.4-7.2 43.4-16.6 90.6l-7 34.8-5.9 10.7c-20.2 36.3-38 80.1-44.7 109.9-8.4 37.2-40 100.3-109 217.8-6.5 11-12.6 21.8-13.6 24-1.6 3.6-10.2 12.5-19.8 20.7l-3.2 2.7-6.4-1.7c-3.5-.9-6.7-1.3-7.1-1-1.5 1.6.7 3.7 5.5 5.3l5.1 1.7v4.5c0 4.9-2.6 10.2-6.2 12.7-1.8 1.3-2.5 1.3-5.4-.1-4.3-2.1-9.3-.8-18.2 4.8-3.5 2.1-6.4 3.9-6.5 3.9-.1 0-1.4-.8-2.9-1.8-3.4-2.1-3.5-2.5-.3-4.2 1.4-.7 2.5-1.7 2.5-2.2 0-.4.6-.8 1.4-.8.8 0 2.8-1.1 4.5-2.5 2.7-2.3 3.7-2.6 10.5-2.3 9.2.4 10.1-.3 10.1-8.1 0-4.4-.5-6.5-2.4-9.3-3.1-4.5-5.3-5.8-11-6.8l-4.6-.7 3.4-1.3c11.5-4.4 24.3-13.1 35.2-23.9 13.6-13.6 20-24.3 36.6-61.1 44.6-98.4 80-187.8 92.8-234.7 6.7-24.2 8.2-29.1 14.5-46.3zm-149 387.3c0-1.7.4-3.4.9-3.7 1.8-1.2 16.7 7.2 21.3 12 4.8 5.1 9.6 15 8 16.6-.5.5-3.7-1.1-7.6-3.7-8.1-5.6-17.5-10.1-22.6-11l-3.9-.7 2-3.1c1-1.8 1.9-4.6 1.9-6.4zM474.2 724c2 .8 2 .9-.8.9-2.5.1-3.3-.5-4.2-2.8-1-2.9-.8-3.3 5-9.1 4.3-4.3 7.2-6.3 10.1-7.1 2.3-.5 4.7-1.2 5.4-1.4.7-.3 3.6-4.1 6.4-8.6 4.9-7.7 5.3-8 8.2-7.5 1.7.3 7.6 1 13.1 1.7 10.5 1.2 14.5 2.3 14.5 3.7 0 .5-5.1 2.9-11.2 5.2-11.3 4.3-11.3 4.3-20.8 14.1l-9.5 9.8-5-.9c-10.4-1.8-17.6-.6-11.2 2zm28.7-6.8c7.4-7.9 8.8-9 16.3-11.9 4.4-1.8 8.2-3.1 8.4-2.9.2.2-1.5 3.1-3.9 6.5-3.4 4.9-6.1 7.4-12.8 11.6-9.5 6-10.5 6.4-13.8 5.8-2-.4-1.5-1.3 5.8-9.1zm23.3-3.3c3.6-5.2 4.5-5.9 8.9-6.9 8.7-1.8 15.2-.8 16.5 2.6 1.1 3-2.9 5.1-11.3 5.8-4.3.4-10.1 1.5-13 2.5l-5.1 1.9 4-5.9zm7.7-12l1.7-2.4c3.4-4.5 28.4-10 34.5-7.6 3.6 1.4 6.9 6.8 6.6 10.6l-.3 3-7.7.3c-5.2.2-8 .7-8.8 1.7-1.7 2.1-2.5 1.9-4.4-1-2.8-4.3-7.1-5.8-14.8-5.2l-6.8.6zm192.6-400.8c1.4 1.6 12.1 10.2 14.1 11.4.2.1-2 6.5-4.7 14.4-2.8 7.8-6.8 20.9-9 29.2-4.8 18.1-10.9 37-20.1 62.2-7.8 21.3-8.8 23.6-8.9 19.5 0-3.7 7.2-40.6 11.5-58.8 3.7-15.7 4.4-19.9 7.5-42.5 2.6-19.2 6-37.5 7-37.5.4 0 1.5 1 2.6 2.1zM770.3 137c10.1-15.2 27.8-39.9 32-44.5 2.7-3-4 11.3-27.8 59.3-32.3 65.1-40.4 83.3-47.4 105.7-7.9 25.2-11.7 43.2-17.2 82-2.5 17.5-10.3 58-11.5 59.3-.1.1-.5-7.1-.9-16-.4-9-1.4-22.5-2.2-30.1-5.7-55.7 22.6-137.2 75-215.7zM662.4 254.3c12.1.9 28.4 8.6 33.5 15.8 2 2.7 2 2.8-.1 11.6-1.1 4.8-2.8 14-3.8 20.3l-1.8 11.5-1.2-4.5c-7.7-29.3-14.8-42.1-28.6-51.7l-5-3.5 7 .5zm7 21.2c12.2 19.2 20.4 62.5 22 116 .3 10.5.8 21.6 1 24.8.4 5.4 0 7.3-1 4.5-.2-.7-2.3-6.9-4.5-13.7-10.3-31.2-26.8-65.6-49.6-103.3-12.5-20.7-28.7-40.7-37.1-45.9-4.3-2.7-3.5-3.3 6.4-4.8 26.6-4.1 51.7 4.9 62.8 22.4zm-81.5-48.9c4.8-43.3 10.9-68.1 20.9-85.6 9.1-15.9 20.1-39.5 24.6-53 5.8-16.9-.3 18.9-9 53.5-7.4 29.7-9.1 38.7-10.5 56-1.3 16.7.3 38.4 3.5 46.7.5 1.2-.6 1.6-5.7 2.2-3.5.3-10.5 1.7-15.6 3.1-5.1 1.4-9.5 2.5-9.8 2.5-.2 0-.4-1.7-.4-3.7 0-2.1.9-11.9 2-21.7zM533.6 465l.7-11.5 1.7 5.5c2.7 8.8 5.7 24.4 7.5 39.1 1.3 11 1.5 18.7 1 42.9-.3 16.2-.9 32.8-1.2 36.8-.6 6.7-.5 7.2 1.4 7.2 2.4 0 2.7-1.2 4.8-15.8 2.4-17.7 2.9-51.2 1-68.2-2.1-18-6.6-39.5-10.7-50.9-1.7-4.7-3.5-10.1-4.2-11.9-1-3-.7-17 1.6-93.9.1-3.4.5-5.9.8-5.5 1.1 1.2 13.2 53.3 17.9 77.2 1.9 9.9 5.4 34.2 6.7 47 .8 7 1 7.5 3.1 7.3 1.2-.2 2.2.1 2.2.5 0 3.7-12.2 81.4-19 120.7-4.3 25.3-4.8 31.5-2.5 31.5.8 0 1.9-1.7 2.5-4.2.6-2.4 1.3-4.9 1.5-5.6 1.2-3.5 14.2-77.2 18-102.1 10.7-70.2 10.6-68.1 7-131.1-.9-15.7-1.7-43.1-1.8-61-.2-28.1 0-33.5 1.6-39.9 2.3-9.6 6.1-16.6 9.8-18.2 8.2-3.3 23.8 10.5 40.4 35.8l2.7 4.2-2.1 2.6c-1.1 1.5-3.3 6.1-4.9 10.3-6 15.6-10 37.2-16.7 88.7-2.5 19.3-5.1 39.1-5.9 44-.7 5-2.8 18.7-4.6 30.5-5 33.8-17.8 109.6-20.1 119-6.7 28-8.1 38-5.4 38 2.2 0 3.2-2.7 8-21.3 3.6-14.2 5.6-19.8 11.6-32.2 3.9-8.2 10.5-22.5 14.5-31.8 21.1-48 30.5-75.6 30.5-89.2 0-6.9-3.3-22.7-8.6-41.4-5.1-17.9-7.5-23.5-10.3-23.9-1.9-.3-2.1-.8-1.7-4 .3-2 1.4-10.7 2.6-19.2 3.8-28.8 12.1-63.6 15.5-64.7.9-.3 12.7 19.4 21.5 36 4.5 8.6 5 10.1 4 12.5-1.3 3.2-3.6 21.3-5.3 40.7-1.8 21.9-1.6 58 .5 69.4 1.8 9.9 5.2 17.6 7.7 17.6 1.9 0 1.8-2.9-.4-12.5-3.5-15.6-3-58.6 1.3-103l.7-7.5 3.6 7c3.2 6.4 14.6 33.8 16.3 39.3.4 1.5-.6 7-2.9 15-1.9 7-7.1 28.2-11.6 47.2-4.4 19-9.9 40.1-12.2 47-10.2 30.2-33 68.1-59.2 98.5-8.5 9.9-24.4 26.6-31 32.5l-5.5 5.1-5.7-6.8c-9.3-11.1-9.5-12-15.9-56.3l-5.7-39.5 1.1-36c.6-19.8 1.4-41.2 1.8-47.5zm84.4-47.7c3.2 12 6.6 26.3 7.5 31.8 2.4 13.7 1.4 19-9.1 48.4-6.3 17.5-26.9 66.4-30.4 72.1-1 1.7-1.1 1.6-.6-.6 3.5-16.5 18.8-114.1 23.4-149.5 1.2-8.8 2.4-17.8 2.7-20 .6-3.6 1.3-1.6 6.5 17.8zM479.1 190c5.3-19.9 16-50.4 18.7-53.3.4-.4 1.3 3.7 2 9 3.5 27.2 13.1 81.5 18.1 102.8 1.6 6.6 5.1 22.9 7.9 36.2l5.1 24.3v20.2c0 11.1-.4 32-1 46.3-.5 14.3-1.2 33.9-1.4 43.5-.3 9.6-1 30.8-1.6 47s-1.5 41.2-1.9 55.5l-.9 26 4.8 32c2.7 17.6 5.4 36.1 6.1 41 1.3 10.4 3 14.5 9.9 23.7 6.4 8.4 24.6 25.8 27.1 25.8 3.1 0 2.2-1.9-4.1-8.6l-6-6.4 9-8.1c16.5-14.7 40.6-42.7 55.2-63.9 9.6-14 16.1-25.4 23.4-40.5 10.8-22.4 14.6-35.8 30-105.5 1.8-8.5 3.4-16.4 3.4-17.4 0-4.1 1.9.1 4.4 9.9 3 11.5 3.1 14.5 1.1 26.9-2.8 16.3-3.4 18.4-10.6 35.9-26 62.8-52.5 122.4-62.3 140.2-11.3 20.6-27.5 35.4-51 46.6-5.8 2.8-10.6 5.6-10.6 6.3 0 1.2-12.8 6.6-15.5 6.6-.5 0-1.9-1.2-3-2.6-1.9-2.4-3.2-2.8-14-4-6.6-.8-14.5-1.6-17.5-1.7l-5.5-.2-5.2 8c-5 7.6-5.5 8.1-11.4 10.1-6.3 2.3-13.1 7.9-17 14-1.8 2.9-1.8 3.5-.4 7.3 1 3 1.1 4.1.2 4-.7-.1-8.1-1-16.6-2-8.5-1.1-15.6-2.1-15.8-2.2-.3-.4 5.4-21.7 6-22.3.2-.2 2.3.3 4.7 1.1 8.2 2.9 22.3.9 33.4-4.7 2.2-1.1 6-2.3 8.5-2.7 5.5-.8 6.5-3.4 1.4-3.9l-3.3-.3 5.6-7.9c3-4.3 7.1-11.3 9-15.6 6.9-14.8 6-27.2-7.1-105.9-4.1-24.2-8.6-50.1-10-57.5-1.4-7.4-3-16.4-3.6-20-.5-3.6-3-17.5-5.5-31s-5.6-30.8-7-38.5c-1.4-7.7-4.3-23.2-6.5-34.5-3.8-18.7-4.1-21.4-3.5-30.6 1.9-33.4 16.9-129 24.8-158.4zm-51.4 503.2c-.5-.5 1.5-1.6 4.4-2.5 4.5-1.5 7.8-1.6 22.3-1 14.1.7 17 1.1 17 2.3 0 2-11.7 5.9-17.5 5.9-2.5-.1-6.1-.5-8-1s-6.6-1.4-10.4-1.9c-3.9-.6-7.4-1.4-7.8-1.8zm36.6-196c-10.8-17.2-15.2-28.6-17.3-45.4-.9-6.4-.9-11.1 0-18 1-8.8 5.1-24.3 6.9-26.2.4-.4 1.3 1.6 1.9 4.5 4.4 22.6 20 108.5 21.1 115.9.4 3 2.8 17 5.3 31 2.6 14 6.2 36.3 8.1 49.5 4.8 32.5 4.7 31.5 4.1 31.5-.3 0-4.2-7.3-8.7-16.2-29.1-57.7-32.4-66.6-37.7-99.9-3.2-20.1-7.7-61.6-6.8-62.5.2-.2 1.1 2.6 2.1 6.3 3.1 12.8 14 32.4 22.4 40.7 2.3 2.2 4.5 3.5 5.2 3.1 1.5-1 1-2-6.6-14.3zm-33-218.1c.9-5.7 1.8-10.6 2-10.9.4-.4 17.4 2.3 21.2 3.3.8.2.5 4.3-.7 13.7-1 7.3-3 22.5-4.4 33.8-4.8 38.8-4.8 34-.3 56.7l3.9 20.2-4.5 9.3c-4.1 8.7-6.4 16.5-8.5 29.8-.5 3-.9 4.9-1 4.3 0-.7-1.2-10.9-2.6-22.5-4.5-39.2-5.7-56.8-6.2-92.3-.4-28.8-.2-36.8 1.1-45.4zm-59.5-133.5c-1.1-1.5-3.1-2.6-4.4-2.6-2.2 0-2.3-.2-2.9-14.2-1.7-41.2-1.9-49.1-.7-48.4.6.4 1.1 1.2 1.1 1.7 0 1 11.8 29.8 22.5 54.9 20.4 47.8 30.4 74.6 35.5 94.5 5.2 20.4 5.7 27.2 2.9 40.5-1.8 8.7-2.2 14.9-2.7 35.8-.6 32.1 1.1 59.2 7.3 114.2 1.3 11.8 2.9 27.6 3.5 35 2.8 34 8.1 74.1 12 90.7 1.1 4.5 4 13.5 6.6 20 7.1 18.1 32.3 67.5 37.6 74.1.6.6 1.9 1.2 2.9 1.2 1.5 0 1.9.8 1.9 4 0 2.2-.4 4-.9 4s-9.2-8.2-19.4-18.2c-10.2-10.1-19.7-20.3-21.2-22.7-4.1-6.6-7.7-15.7-19-47.1-5.7-15.7-12.3-33.7-14.9-40-2.9-7.3-4.6-12.9-4.6-15.7 0-3.8-6.4-49.9-14-101.3-1.6-10.7-4.3-30.3-6-43.5s-4-30.5-5-38.5c-2.8-21.2-4.7-37.3-6.5-56.5-.8-9.3-2-21.5-2.5-27-.6-5.5-1.5-23.3-2-39.5-1.3-38.6-2.8-49.9-7.1-55.4zM355.4 222c-2.4-9.1-6.6-25-9.4-35.5-2.8-10.4-7.5-26.4-10.5-35.5-2.9-9.1-5.2-16.6-5.1-16.8.5-.6 23.2 39.1 32.6 56.8l9.2 17.5.8 13.5c2.7 45.5 9.5 102.5 23.8 199 4.7 31.7 11.6 74 12.6 76.8.9 2.6-1.1 1-3.1-2.6-1.2-2-3.9-5.7-6.1-8.2-3.8-4.4-4-4.8-6.6-21-3.1-19.2-11-53.5-16-70-5-16.2-5.5-22-2.7-31.1 2.1-6.6 2.2-8.6 1.7-23.3-1.1-32.6-7.3-67.7-21.2-119.6zm-45.1 65c.1 0 2.4 4.3 5.1 9.6 3.8 7.6 6.8 11.6 14.5 19.8 11.6 12.4 17.3 20.8 24.4 35.8 7.6 16.1 12.3 29.2 14.1 39.6 2.4 14 9 43.2 13.5 60 2.3 8.4 4 15.7 3.8 16.2-.2.6-2.9-3.3-6-8.7-13.1-22.9-22.6-42.4-37.7-77.8-4.9-11.5-12.1-27.7-16.1-36-6.9-14.5-7.3-15.7-11.1-35-2.2-11-4.1-20.8-4.3-21.7-.2-1-.3-1.8-.2-1.8zm-100.5-44.4c-4.2-9.2-16.8-54-15.6-55.2.2-.2 3 3.5 6.2 8.3 12.8 19.3 26.2 33.9 53.5 58.2 9.6 8.5 19.9 18 22.8 21 15.7 16.1 34.5 51.2 60.9 113.1 21.2 49.7 42.4 88.1 55.7 100.9 8.4 8 17.4 27.2 32.6 69.3 16.5 45.6 19.1 51.3 27.4 61.1 6.8 8 22 22.8 31.6 30.8 4.1 3.4 7.7 6.8 7.8 7.6.9 3.7-14.4 29.4-17.3 29.2-.5-.1-2.8-.5-5-1-2.2-.4-7.2-.8-11-.8l-7-.1-.1-5.7c-.1-6.2-1.8-10.6-5.4-13.8-5.5-4.9-30.2-37.9-60.2-80.3-16.1-22.9-27.7-41.8-82.5-135.5-6.4-11-31.6-56.9-56.7-103.3-14.7-27.3-14.9-27.6-23.4-42.8l-5.2-9.5-1-12.8c-1.5-18.6-3.6-28.5-8.1-38.7zm-4.7 63.6c-2.2-3.7-5.8-8.7-7.9-11.2-9.4-10.8-29-37.3-37.9-51-5.3-8.3-15.4-25.8-15.4-26.8 0-.3 3 3.9 6.8 9.4 16.1 23.7 41.9 55.3 65.3 79.9 4.4 4.7 8.5 11.2 18.4 29.5 24.7 45.6 37.8 69.6 43.2 79.3 3 5.4 5.3 10 5.1 10.3-.3.2-4.8-4.9-10-11.4-5.3-6.4-17.6-21.5-27.4-33.4-17.9-21.7-17.9-21.8-20.7-31-3.3-10.6-13.7-33.8-19.5-43.6zM407 650.7c-25-20.9-44-44.5-83.8-104.3-7.7-11.5-24.1-34.8-36.4-51.9-37.9-52.1-55.6-78.1-59.4-87.1-1-2.5-10.1-12.2-27.9-29.8C141.1 319.8 108.8 284 84 249.7c-7.6-10.5-19.2-28.9-18.6-29.5.5-.5 1.9.7 28.9 24.8 49.2 43.9 100.9 89.5 106.4 94 2.4 1.9 21.7 24.4 43 50s42.8 51.3 47.8 57.1c5.9 6.9 12.2 15.9 17.9 25.5 4.8 8.2 10.7 18.1 13 21.9 2.3 3.9 9.5 16 16 27s15.3 25.9 19.5 33c12 20.3 68.7 98.5 81.4 112.2 6.7 7.3 7.6 9.1 7.6 14.7v4.6h-3.8c-3.6 0-4.3-.6-15.6-13.6-6.5-7.4-15.7-16.8-20.5-20.7zm7.2 25.7c10.6-1.1 10-1.1 10.4.2.4 1.2-2.1 1.9-11.2 2.9-3.3.4-6.3.3-6.7-.1-1.7-1.7-.4-2.2 7.5-3zm-12.3 9.4c0-2.8.1-3 1.3-1.4s1.8 1.6 11.5.1c10.6-1.7 16.9-1.7 16.5 0-.1.6-5.1 1.5-11 2.2-5.9.6-12.5 1.4-14.5 1.7-3.7.6-3.8.6-3.8-2.6zm7.1 16.4l-2-3.3c-1.2-1.9-2.1-3.7-2.1-4.1 0-.9 8.9-2.2 9.7-1.5.3.3-.8 2.5-2.5 4.8l-3.1 4.1zm10.6 10.4l-6.9-6.3 3.3-4.7c3.2-4.4 3.6-4.7 6.9-4.1 7.8 1.3 9 1.7 9 3.1 0 2.5-4.2 18.4-4.9 18.4-.3-.1-3.7-2.9-7.4-6.4zm21.5 51.3c-1 .5-7.5 1.2-14.6 1.6l-13 .7 9.9-8c8.9-7.3 10.5-8.2 16-9.1 3.4-.6 6.7-1.1 7.3-1.1 1.6 0-3.7 14.9-5.6 15.9zm-1.8-19.8l-7.7 1.1-13.3 10.4c-7.2 5.7-13.5 10.4-13.8 10.4-.4 0-.4-2.4 0-5.2.4-3.3 1.8-6.9 3.5-9.4 2.7-3.9 11.7-12.4 20.7-19.3l4.3-3.3 12.5.7c19.1 1.1 18.9.9 9.5 7.8-7.3 5.2-8.6 5.8-15.7 6.8zm9 22.4c-.4-.9.8-6.2 2.6-11.8 3.1-9.6 3.6-10.5 9.2-15.5 3.2-3 5.8-6 5.8-6.7 0-1.3 5.7-3.2 6.7-2.2.3.3-.7 3-2.2 6-1.4 3-3.4 9.3-4.3 14.1-1.8 9.3-1.5 8.9-11.5 14.5-4.9 2.8-5.8 3-6.3 1.6zm39.7-1.1c-.3.2-6.4.7-13.6 1l-13 .7 9-5.1c5.8-3.3 10.9-5.5 14.4-6.1 3-.4 5.7-.7 5.9-.4.6.5-1.8 9.4-2.7 9.9zm85.4-40.4c-3.6 3.6-4.6 5.4-4.2 6.9.4 1.7-1.1 3.6-7.4 9.4l-8 7.2-8.2.7c-11.7.9-25 5.8-30.1 11.1-3.4 3.5-4.7 4.2-11 5.3-3.9.7-8.1 1.3-9.2 1.3l-2.2.1 2.1-6.7c1.9-6.3 6.1-14.3 7.6-14.3.3 0 1.7 2.1 3.1 4.7 3.3 6.1 7 8.9 9.8 7.4 1.1-.6 2.4-2 2.7-3.2.9-2.8 7.9-5.8 15.5-6.6 7-.7 7-.7 9.5-11 3.1-12.7-.8-13.8-4.6-1.3l-2 6.7-5.6.7c-7.2.8-13.7 3.7-15.9 7-1.5 2.4-1.8 2.5-3.3 1.2-.9-.8-2.7-3.5-3.9-6l-2.4-4.4 2.7-4.7c2-3.3 2.5-4.9 1.7-5.7-1.6-1.6-2.9-.2-10.1 10.1l-6.2 8.9-7.2.7c-4.4.5-9.1 1.7-12 3.1l-4.8 2.5.7-2.8c1.7-7 5.5-18 7-20.2 1.7-2.4 1.9-2.4 13.4-1.7l11.7.6 7.4-4.8c4.1-2.6 7.9-5.1 8.6-5.5.7-.5.9 0 .6 1.3-.7 2.5.6 2.5 7.7 0 3.2-1.1 8.2-1.9 12.1-2 6 0 6.8.2 9.5 3.1 1.6 1.7 4 3.7 5.4 4.4 2.3 1.2 3.1 1 9-3 6.9-4.5 12.6-6.9 14.2-5.9.6.4-1.1 2.8-3.7 5.4zm7.3 5.1c-2.1-.1-3.8-.4-3.8-.9 0-1.6 5.2-8.2 6-7.7.6.3 2.6-.2 4.6-1.1 3-1.5 4.3-1.5 8.8-.5 4.8 1.1 16 7.1 22.2 12l2.4 1.9-3.4 2.1c-1.8 1.2-4.2 2-5.2 2-1.1-.1-7.7-1.8-14.9-4-7.1-2.1-14.7-3.8-16.7-3.8zm40.5 33.9c-1.1-.5-4.9-2.9-8.3-5.4-6.6-4.9-10.2-5.7-13.1-3-1.9 1.7-1.5 2.7-5-10.7-.5-2.2-1.2-4.6-1.5-5.4-.4-1 1.6-.8 8.3 1.1 4.8 1.3 8.9 2.8 9.1 3.3.1.4 3.4 5.1 7.2 10.4 8.3 11.3 8.5 11.8 3.3 9.7zm11.7-33.6c0-3.2 1.5-3 3.7.4 1 1.5 3.9 5.7 6.5 9.3 5.4 7.5 5.8 8.9 2.5 8.9-1.3 0-2.8.5-3.4 1.1-1.6 1.6-3 .4-6.9-5.7-3.5-5.4-4.7-6.3-5.9-4.3-1 1.6 4.5 11.7 7.9 14.6l3.1 2.6-3.9 3.3c-2.2 1.9-4.2 3.4-4.5 3.4-.3 0-4.1-4.6-8.4-10.3l-7.7-10.2 4.2-3.7c2.6-2.3 5.3-3.8 7-3.8 3.3 0 5.8-2.4 5.8-5.6zm2.7-24.4c-.6 0-3.2 1.4-5.9 3-2.6 1.7-5 3-5.1 3-.2 0-1.8-1.5-3.6-3.4-4.2-4.3-13.7-9.5-19.3-10.4-2.3-.4-4.3-1.2-4.5-1.7-.2-.6 1.9-2.1 4.5-3.3 4.3-2 5.8-2.2 12.3-1.7 5.4.5 9.1.3 13.8-1 3.5-.9 6.4-1.5 6.5-1.3.1.2 1.2 3.5 2.3 7.5 2 7 1.7 9.3-1 9.3zm290.9-377c-23.1 28.8-62.2 71-84.5 91.2-32.3 29.4-35 33-125.1 170-26.8 40.7-34.9 51.7-47.1 63.7-11.7 11.5-23.4 19.9-37.6 26.8-10.6 5.3-21.1 8.1-20.2 5.5.2-.5 5.4-5.3 11.6-10.6 18.8-16.2 31.2-30.8 44.2-52.2 9.4-15.6 20.3-30.1 33.3-44.4 11.1-12.2 13-15.3 35.8-57.5 22.3-41.3 62.1-92.8 101.1-131 24.2-23.7 37.5-33.9 71.9-55.3 6.3-4 14.4-9.3 17.9-11.9 7.3-5.3 7.2-4.8-1.3 5.7z" fill="#fefefe"/>
</svg>
