<svg version="1.1" id="Capa_1" xmlns="http://www.w3.org/2000/svg" x="0" y="0" viewBox="0 0 214.4 48.9" xml:space="preserve">
  <style>
    .st0{fill:#fff}
  </style>
  <path class="st0" d="M199.4 12h-27.2c-.1 0-.3 0-.4.1l-18.6 8.2c-.4.2-.6.5-.6.9V38c0 .6.5 1 1 1h10.6c.9 0 1.4-1.2.7-1.8l-2.4-2c-.5-.4-.5-1.2.1-1.6l4.8-3.3c.6-.4.6-1.3-.1-1.7l-4.2-2.5c-.7-.4-.7-1.4.1-1.8l4.6-2.2c.7-.3.8-1.3.1-1.8-.7-.5-.6-1.5.2-1.8l3-1.3c.1-.1.3-.1.4-.1H194c.6 0 1 .5 1 1v16c0 .6-.5 1-1 1h-16c-.6 0-1-.5-1-1v-7.4c0-.6.5-1 1-1h5c.6 0 1 .5 1 1v.7c0 .6-.5 1-1 1h-.9c-.6 0-1 .5-1 1v1c0 .6.5 1 1 1h6.9c.6 0 1-.5 1-1v-8.5c0-.6-.5-1-1-1h-16.9c-.6 0-1 .5-1 1v16.7c0 .6.5 1 1 1h27.3c.6 0 1-.5 1-1V13c0-.6-.4-1-1-1zM63.8 20.2L45.2 12H17.6c-.6 0-1 .5-1 1v25.8c0 .6.5 1 1 1h27.3c.6 0 1-.5 1-1V22.1c0-.6-.5-1-1-1H28c-.6 0-1 .5-1 1v8.5c0 .6.5 1 1 1h6.9c.6 0 1-.5 1-1v-1c0-.6-.5-1-1-1H34c-.6 0-1-.5-1-1v-.7c0-.6.5-1 1-1h5c.6 0 1 .5 1 1v7.4c0 .6-.5 1-1 1H22.9c-.6 0-1-.5-1-1v-16c0-.6.5-1 1-1h22.5c.1 0 .3 0 .4.1l3 1.3c.7.3.8 1.3.2 1.8-.6.4-.6 1.4.1 1.8l4.6 2.2c.7.4.8 1.4.1 1.8l-4.2 2.5c-.6.4-.7 1.3-.1 1.7l4.8 3.3c.5.4.6 1.2.1 1.6l-2.4 2c-.7.6-.3 1.8.7 1.8h10.6c.6 0 1-.5 1-1V21.1c.1-.4-.1-.7-.5-.9z"/>
  <path class="st0" d="M204.8 0H9.6C4.3 0 0 4.3 0 9.6v29.7c0 5.3 4.3 9.6 9.6 9.6h195.2c5.3 0 9.6-4.3 9.6-9.6V9.6c0-5.3-4.3-9.6-9.6-9.6zm-99.3 11.6c3.7 2.2 7.7-.6 11.9-2.7 1.2-.6 3.5-1.1 4.3-1.1.4 0 .5.4.2.7-3.3 2.5-10.2 6.3-13.2 6.3-1.8 0-5.4-3-11.7-6-.7-.5 0-2.3 8.5 2.8zm105.3 27.7c0 3.3-2.7 5.9-5.9 5.9H9.6c-3.3 0-5.9-2.7-5.9-5.9V9.6c0-3.3 2.7-5.9 5.9-5.9h63.3C77.8 9 93.1 24 108.6 24c18.9 0 35.5-20.4 35.5-20.4h-.5 61.2c3.3 0 5.9 2.7 5.9 5.9v29.8z"/>
</svg>
