<svg xmlns="http://www.w3.org/2000/svg" id="Capa_1" x="0" y="0" version="1.1" viewBox="0 0 691.9 51" xml:space="preserve">
  <defs/>
  <style>
    .st0{fill:#fff}
  </style>
  <g id="XMLID_108_">
    <path id="XMLID_346_" d="M660.8 17.7c-2.4.3-4.3 1.6-5.8 3.6-.2.2-.2.8 0 1 .4.7.9 1.3 1.5 1.8 2.4 2.3 6.4 1.7 8.2-1.5.1-.4.4-1 .6-1.7.3-.7.1-1.2-.4-1.7-1.1-1.1-2.5-1.7-4.1-1.5zm2.6 4c-1.4 2.1-3.3 2.8-5.3 1.6-1.6-1-1.6-1.6-.1-2.7s3.1-1.5 4.9-.6c1.1.4 1.2.7.5 1.7z" class="st0"/>
    <path id="XMLID_347_" d="M677.9 43.4c-2.8.7-5.2-.1-7.6-1.7-2.5-1.7-4.9-3.4-7.5-4.8-2.5-1.4-5.3-2.3-8.2-2.7-1.4-.2-2.8-.1-3.9 1-.5.5-1.2.8-1.9.9-2.2.5-4.5-1.2-5-3.5-.5-2.5 1.1-5.4 3.3-6.1 2-.6 3.7.1 5 1.8.4.5.9 1 1.7.8 3.6-.7 7.3-1.4 10.9-2.1.5-.1 1-.5 1.3-.9 1-1.4 1.9-2.8 2.9-4.3.5-.7 1-1.2 1.9-1.4.9-.1 1.8-.4 2.7-.6 3.9-.9 7.9-1.8 11.8-2.7 1.2-.3 1.6-.9 1.5-1.9s-.8-1.6-1.9-1.5c-.8 0-1.6.2-2.3.3-3.8.9-7.6 1.9-11.4 2.7-1.4.3-2.5.8-3.6 1.8-.7.7-1.1 1.4-1.4 2.3-.8 2.6-2.3 4.6-5 5-2.3.4-4.2-.6-5.7-2.5-.3-.3-.6-.7-1-.8-5.5-2.1-10.5-.4-13.7 4.2-2.5 3.6-2.1 8.5.9 11.5h-21.1V23.1h-18.8v12.7h8.1v-2.5h-5.4v-7.6H618v15.2H647.6c1.1 0 2.2-.2 3.3-.6 3.2-1.2 6.4-1.1 9.5.2 2.4 1 6.9 3.7 8.9 4.7 1.8 1 3.7 1.9 5.8 2.2 2 .3 3.7-.9 4.2-2.7-.1-1.2-.3-1.6-1.4-1.3z" class="st0"/>
    <path id="XMLID_348_" d="M641.7 24.4c.6-.5 1.2-1.1 1.8-1.6 2.6-1.8 5.4-2.1 8.4-1.6 1.6.3 2.6-.1 3.8-1.3 2.8-3.1 6.1-3.5 9.2-1.6 1.3.8 1.3.8 2.3 0 .4-.3.8-.6 1-1 .1-.2.1-.7 0-.9-.2-.5-.6-.9-.8-1.4-.7-2.2-.7-2.2-2.9-1.9h-.3c-6.5 1.7-13.1 3.5-19.6 5.1-1.8.5-3.1 1.4-3.9 3.2-.3.6-.9 1.2-1.4 1.6-.8.6-1.7.4-2.4-.2-.7-.5-1.2-1.3-1.1-2.3.1-1.1 1-1.1 1.7-1.3.6-.1.9-.5.9-1.2-.1-.7-.5-1-1.1-1.1-1.4-.2-2.5.2-3.4 1.3-.9 1.3-1.2 2.8-.5 4.3 1.3 3.2 5.8 4.2 8.3 1.9z" class="st0"/>
    <path id="XMLID_349_" d="M686.1 18.3c-.3-.1-.7-.4-1-.3-4.8 1.1-9.7 2.1-14.5 3.3-.5.1-1.1.6-1.4 1.1-.9 1.2-1.7 2.6-2.4 3.9-.5.9-1.2 1.4-2.2 1.6-3.8.8-7.6 1.5-11.4 2.2-.3.1-.9-.3-1-.6-.4-1-1.1-1.6-2-2.1-1.6-.9-3.6-.5-4.7.9-1.3 1.6-1.4 3.9-.4 5.4 1.1 1.6 2.9 2.1 4.7 1.3.5-.2 1-.6 1.5-.8.7-.3 1.4-.6 2.1-.6.8-.1 1.6 0 2.4.2 4.2.8 8.1 2.3 11.7 4.9 1.5 1 2.9 2.1 4.8 3.4 0 0-.2-.6-2.3-2.4-2.1-1.8-5.6-4-8.8-5.2-1.1-.4-2.2-.6-3.4-1-1.8-.5-3.5-1.1-5.3-1.6-1-.3-2-.3-2.8.7-.1.2-.4.3-.7.4-.8.3-1.5.2-2-.5s-.5-1.4-.1-2.2c.7-1.2 2.1-1.3 3 0 .7.9 1.4 1.1 2.4.8.6-.2 1.3-.3 2-.4 3.6-.7 7.3-1.4 10.9-2.2 1-.2 1.8-.7 2.4-1.6.6-.9 1.3-1.8 1.8-2.8.7-1.4 1.7-2 3.2-2.4 4.3-.9 8.6-1.9 12.9-3 .1.2.4-.1.6-.4z" class="st0"/>
    <path id="XMLID_350_" d="M675.7 28.6c.3-.9.3-2.9-.2-3.5-.2-.3-.6-.6-1-.7-1.1-.2-2 .2-2.6 1.3-.7 1.4-1.8 2.2-3.1 2.7l-1.8.6c-1.6.5-1.8.6-1.7 2.4 0 .4.2.8.4 1.2.4-.2.9-.4 1.1-.8.5-.9 1.1-1.3 2-1.4 1.5-.2 3-.4 4.5-.8.8-.2 1.6-.7 2.4-1z" class="st0"/>
    <path id="XMLID_351_" d="M671.5 15.4c.2 0 .4 0 .5-.1.5-.3.6-.7.7-1.2.1-.4-.2-1-.6-1.2-.4-.2-.7-.2-1.3-.2.1-.5.7-.9 1.2-.6.5.3 1 .8 1.3 1.4.6 1.4.6 1.5 2.1 1.1.1 0 .3-.1.4-.1 1.5-.4 2.1-1.8 1.3-3.3-.4-.7-.8-1.4-1.7-1.3-.4.1-.7.5-1 .8.3.3.5.6.8.8.1.1.4 0 .5.2.2.3.3.6.3.9 0 .1-.2.4-.3.4-.3-.1-.6-.2-.7-.4-.4-.4-.6-1-1-1.4-1.2-1.5-3-1.7-4.5-.5-1 .9-1.3 2.2-.8 3.5.7 1.4 1.1 1.5 2.8 1.2z" class="st0"/>
    <path id="XMLID_352_" d="M623.9 35.8c4.3 1.6 8.2.6 11.7-2.3.6-.5 1.1-1.2 1.8-1.9-2.2-1.2-4-.1-5.8.1 0-.1-.1-.2-.1-.4 1.5-.6 3-1.2 4.6-1.9 0-.2.1-.3.1-.5-.5-.3-1-.6-1.5-.8-4.2-1.3-9.8 1.7-11.4 6.1-.3.9-.2 1.3.6 1.6z" class="st0"/>
    <path id="XMLID_353_" d="M623.9 25.9c2.6 1.7 5.1 1.3 7.6-.1.3-.2.5-.6.7-.9-.4-.2-.7-.4-1.1-.5-.8-.1-1.7 0-2.5 0v-.2c1.1-.2 2.2-.3 3.5-.5-.9-1-1.9-1.4-2.9-1.5-2.2-.1-3.9.9-5.4 2.5-.6.5-.4.8.1 1.2z" class="st0"/>
    <path id="XMLID_354_" d="M652.2 7.4c.8.9 1.1 2 .7 3.2-.1.3-.1.5-.2 1 1-.3 1.9-.5 2.7-.8.1-.1.3-.4.2-.7-.2-1.5-.7-2.8-1.6-4-.8-1-1.6-2-2.4-3.1-.4-.5-.8-.5-1 .1-.4.9-.3 1.7.2 2.5.5.6.9 1.2 1.4 1.8z" class="st0"/>
    <path id="XMLID_355_" d="M656.4 10.3s0 .1.1.3c.8-.2 1.6-.4 2.3-.7.2-.1.4-.5.4-.7-.2-1.6-.8-3-1.9-4.2-.6-.7-1.1-1.5-1.7-2.2-.2-.2-.5-.6-.6-.5-.2.1-.5.4-.6.7-.3 1.1.1 2 .8 2.7 1.1 1.2 1.9 2.7 1.2 4.6z" class="st0"/>
    <path id="XMLID_356_" d="M649.1 12.5c.1 0 .2 0 .2.1.8-.3 1.5-.5 2.3-.8.2-.1.3-.5.3-.7-.1-1.5-.7-2.8-1.6-3.9-.6-.7-1.1-1.5-1.6-2.2-.2-.2-.5-.5-.6-.4-.2.1-.4.4-.5.6-.3.9-.1 1.7.5 2.4 1.1 1.4 2.2 2.8 1 4.9z" class="st0"/>
    <path id="XMLID_357_" d="M659.6 9.5c1-.2 1.9-.4 2.8-.6-.2-1.7-.7-3.1-1.6-4.3-.7-.9-1.4-1.8-2.1-2.6-.1-.2-.4-.4-.6-.3-.2.1-.4.3-.5.6-.3 1 .1 1.9.7 2.6 1.3 1.2 2.3 2.6 1.3 4.6z" class="st0"/>
    <path id="XMLID_358_" d="M663.5 8.9h2.6c.3-1.5-.3-2.5-1.1-3.5-.9-1.1-1.8-2.2-2.7-3.2-.1-.1-.4-.3-.5-.3-.2.1-.4.3-.5.6-.3 1.2.2 2.1.9 2.8.9 1 2 2 1.3 3.6z" class="st0"/>
    <path id="XMLID_359_" d="M656.6 42.6c-.2-.8 0-1.6 0-2.6h-1.2c-1.4.1-1.5.2-1.2 1.7.3 1.7 1.2 3.1 2.3 4.3.5.5 1 1.1.6 2-.1.1.2.4.3.6.2-.1.4-.2.6-.4.6-1 .1-1.8-.3-2.7-.5-.9-.9-1.9-1.1-2.9z" class="st0"/>
    <path id="XMLID_360_" d="M645.7 10.2c.5.7.8 1.5.4 2.4-.1.3-.1.5-.2 1 .8-.3 1.5-.5 2.1-.8.2-.1.4-.5.3-.8-.2-1.5-.7-2.8-1.8-3.8-.4-.4-.7-.9-1.1-1.4-.2-.3-.5-.5-.8-.7-.2.3-.5.7-.5 1 0 .5.2 1.1.4 1.6.4.6.8 1.1 1.2 1.5z" class="st0"/>
    <path id="XMLID_361_" d="M661.2 45.3c-.7-1.2-.7-2.6-.3-4-.7-.2-1.3-.4-1.9-.6-.7 1.9.2 4.8 1.8 6.3.5.4 1.1.8.9 1.7 0 .1.2.3.3.5.1-.1.3-.2.4-.3.3-.6.4-1.3-.1-1.9-.4-.6-.8-1.1-1.1-1.7z" class="st0"/>
    <path id="XMLID_362_" d="M679.7 27c.4-.7 0-2.3-.8-2.8-.8-.6-2.3-.4-2.5.5s0 1.9.3 2.8c.1.5 2.7 0 3-.5z" class="st0"/>
    <path id="XMLID_363_" d="M641.6 10.5c.9 1.2 1.9 2.3 1 4.2.9-.3 1.6-.5 2.4-.7-.2-1.3-.5-2.5-1.3-3.4-.6-.7-1.1-1.4-1.6-2.1-.1-.1-.3-.3-.5-.3s-.4.3-.4.4c.1.7.1 1.5.4 1.9z" class="st0"/>
    <path id="XMLID_364_" d="M661.9 30.1c.4 1.4.8 2.6 1.2 3.7.1.3.6.7.8.6.3 0 .6-.5.6-.9.1-1.1.2-2.3.2-3.4 0-.2-.3-.5-.5-.5-.7.2-1.4.4-2.3.5z" class="st0"/>
    <path id="XMLID_365_" d="M679.9 24.1c-.1.1-.1.3-.1.4.1.6.2 1.3.4 1.9 0 .2.1.4.3.4.4.3 2.3-.2 2.6-.7.4-.6-.1-2.2-.9-2.7-.5-.3-2 0-2.3.7z" class="st0"/>
    <path id="XMLID_366_" d="M664.6 43.9c0-.2-.2-.6-.4-.7-.4-.3-.9-.5-1.6-1v1.5c.2 1.4 1 2.4 1.9 3.4.5.6.9 1.2 1.3 1.8.1.2.2.3.4.4.1-.2.2-.4.2-.6.1-1.1-.4-1.9-1.1-2.6-.5-.6-.8-1.3-.7-2.2z" class="st0"/>
    <path id="XMLID_367_" d="M643.8 14.9c-1.5.3-2 1.3-1.3 2.8.1.1.2.3.3.3.9-.2 1.8-.4 2.8-.7-.2-.9-.2-1.6-.5-2.2-.2-.3-.9-.3-1.3-.2z" class="st0"/>
    <path id="XMLID_368_" d="M648.2 13.7c-.6.1-1.3.2-1.8.5-.6.3-.6 2.5 0 3l1.5-.6c1.2-.4 1.6-1.5.9-2.6-.3-.2-.5-.3-.6-.3z" class="st0"/>
    <path id="XMLID_369_" d="M656.5 12.2c0 1.9.1 2 1.9 1.4.1 0 .3-.1.4-.2.3-.3.7-.6.7-.9 0-.6-.2-1.2-.3-2-.8.2-1.5.3-2.1.6-.3.2-.6.7-.6 1.1z" class="st0"/>
    <path id="XMLID_370_" d="M661.3 9.9c-.3.1-.6.2-.9.4-.2.2-.4.5-.4.7 0 .6.1 1.3.2 2.2 1-.3 1.7-.5 2.5-.8.2-.1.3-.3.4-.5.4-1.4-.5-2.4-1.8-2z" class="st0"/>
    <path id="XMLID_371_" d="M655.2 11.7c-.6.1-1.2.2-1.7.5-.3.1-.4.7-.4 1.1 0 .6.1 1.1.3 2 .7-.3 1.2-.5 1.7-.7 1.1-.4 1.5-1.5.8-2.6-.3-.2-.6-.4-.7-.3z" class="st0"/>
    <path id="XMLID_372_" d="M650.1 13c-.6.1-.8.5-.8 1.2.1 1.9.1 1.9 1.8 1.4.4-.1.9-.3 1.5-.5-.2-.8-.2-1.8-.6-2.1-.3-.4-1.2-.1-1.9 0z" class="st0"/>
    <path id="XMLID_373_" d="M686.2 25.2c.3-.6 0-2.1-.6-2.5-.6-.3-2.3 0-2.3.5 0 .9.3 1.8.7 2.5.3.5 2-.1 2.2-.5z" class="st0"/>
    <path id="XMLID_374_" d="M659.5 30.5c-.1 0-.2.1-.3.1-.1 1.2.4 2.1 1.1 2.9.4.4 1 .5 1.1-.1.2-1 .1-2 .1-3-.7.1-1.4.1-2 .1z" class="st0"/>
    <path id="XMLID_375_" d="M665.8 10c-.5-.3-1.2-.3-1.8-.2s-.5.8-.5 1.3c.1 1.2.2 1.3 1.4 1 .4-.1.8-.1 1.1-.2.2 0 .4-.2.5-.2 0-.1.1-.2.1-.2-.2-.5-.4-1.3-.8-1.5z" class="st0"/>
    <path id="XMLID_376_" d="M305.4 30.7h5.4v7.6h-24.3v-7.6h5.4v-2.5h-8.1v12.7h29.7V28.2h-8.1z" class="st0"/>
    <path id="XMLID_377_" d="M337.7 33.3h-5.4v2.5h8.1V23.1h-18.9v15.2h-2.7V23.1H300v12.7h8.1v-2.5h-5.4v-7.7h13.4v15.3H324.2V25.6h13.5z" class="st0"/>
    <path id="XMLID_378_" d="M348.5 30.7h5.3v7.6h-24.2v-7.6h5.4v-2.5h-8.1v12.7h29.6V28.2h-8z" class="st0"/>
    <path id="XMLID_379_" d="M380.8 33.3h-5.4v2.5h8.1V23.1h-18.9v15.2h-2.7V23.1h-18.8v12.7h8.1v-2.5h-5.4v-7.7h13.4v15.3H367.3V25.6h13.5z" class="st0"/>
    <path id="XMLID_380_" d="M423.8 33.3h-5.3v2.5h8V23.1h-18.8v15.2H405V23.1h-18.8v12.7h8v-2.5h-5.4v-7.7h13.5v15.3H410.4V25.6h13.4z" class="st0"/>
    <path id="XMLID_381_" d="M391.5 30.7h5.4v7.6h-24.2v-7.6h5.4v-2.5H370v12.7h29.6V28.2h-8.1z" class="st0"/>
    <path id="XMLID_382_" d="M434.6 30.7h5.4v7.6h-24.2v-7.6h5.4v-2.5h-8.1v12.7h29.6V28.2h-8.1z" class="st0"/>
    <path id="XMLID_383_" d="M466.9 33.3h-5.4v2.5h8.1V23.1h-18.8v15.2h-2.7V23.1h-18.9v12.7h8.1v-2.5h-5.4v-7.7h13.5v15.3H453.5V25.6h13.4z" class="st0"/>
    <path id="XMLID_384_" d="M477.7 30.7h5.4v7.6h-24.3v-7.6h5.4v-2.5h-8v12.7h29.6V28.2h-8.1z" class="st0"/>
    <path id="XMLID_385_" d="M510 33.3h-5.4v2.5h8.1V23.1h-18.9v15.2h-2.6V23.1h-18.9v12.7h8.1v-2.5H475v-7.7h13.5v15.3h8V25.6H510z" class="st0"/>
    <path id="XMLID_386_" d="M520.8 30.7h5.4v7.6h-24.3v-7.6h5.4v-2.5h-8.1v12.7h29.7V28.2h-8.1z" class="st0"/>
    <path id="XMLID_387_" d="M553.1 33.3h-5.4v2.5h8.1V23.1h-18.9v15.2h-2.7V23.1h-18.8v12.7h8.1v-2.5h-5.4v-7.7h13.4v15.3H539.6V25.6h13.5z" class="st0"/>
    <path id="XMLID_388_" d="M596.2 33.3h-5.4v2.5h8.1V23.1H580v15.2h-2.7V23.1h-18.8v12.7h8v-2.5h-5.3v-7.7h13.4v15.3H582.7V25.6h13.5z" class="st0"/>
    <path id="XMLID_389_" d="M563.9 30.7h5.3v7.6H545v-7.6h5.4v-2.5h-8.1v12.7h29.6V28.2h-8z" class="st0"/>
    <path id="XMLID_390_" d="M606.9 30.7h5.4v7.6h-24.2v-7.6h5.4v-2.5h-8.1v12.7H615V28.2h-8.1z" class="st0"/>
    <path id="XMLID_1_" d="M3.8 38.3h10.8v-7.6H9.2v-2.5h8.1v12.7H3.8z" class="st0"/>
    <path id="XMLID_394_" d="M41.5 33.3h-5.4v2.5h8.1V23.1H25.4v15.2h-2.7V23.1H3.8v12.7h8.1v-2.5H6.5v-7.7H20v15.3H28.1V25.6h13.4z" class="st0"/>
    <path id="XMLID_395_" d="M84.6 33.3h-5.4v2.5h8.1V23.1H68.4v15.2h-2.6V23.1H46.9v12.7H55v-2.5h-5.4v-7.7h13.5v15.3h8V25.6h13.5z" class="st0"/>
    <path id="XMLID_396_" d="M52.3 30.7h5.4v7.6H33.4v-7.6h5.4v-2.5h-8v12.7h29.6V28.2h-8.1z" class="st0"/>
    <path id="XMLID_397_" d="M95.4 30.7h5.4v7.6H76.5v-7.6h5.4v-2.5h-8.1v12.7h29.6V28.2h-8z" class="st0"/>
    <path id="XMLID_398_" d="M127.7 33.3h-5.4v2.5h8.1V23.1h-18.9v15.2h-2.7V23.1H90v12.7h8.1v-2.5h-5.4v-7.7h13.4v15.3H114.2V25.6h13.5z" class="st0"/>
    <path id="XMLID_399_" d="M138.4 30.7h5.4v7.6h-24.2v-7.6h5.4v-2.5h-8.1v12.7h29.6V28.2h-8.1z" class="st0"/>
    <path id="XMLID_400_" d="M170.8 33.3h-5.4v2.5h8.1V23.1h-18.9v15.2h-2.7V23.1h-18.8v12.7h8v-2.5h-5.3v-7.7h13.4v15.3H157.3V25.6h13.5z" class="st0"/>
    <path id="XMLID_401_" d="M181.5 30.7h5.4v7.6h-24.2v-7.6h5.4v-2.5H160v12.7h29.6V28.2h-8.1z" class="st0"/>
    <path id="XMLID_402_" d="M213.8 33.3h-5.3v2.5h8V23.1h-18.8v15.2H195V23.1h-18.9v12.7h8.1v-2.5h-5.4v-7.7h13.5v15.3H200.4V25.6h13.4z" class="st0"/>
    <path id="XMLID_403_" d="M256.9 33.3h-5.4v2.5h8.1V23.1h-18.8v15.2h-2.7V23.1h-18.9v12.7h8.1v-2.5h-5.4v-7.7h13.5v15.3H243.5V25.6h13.4z" class="st0"/>
    <path id="XMLID_404_" d="M224.6 30.7h5.4v7.6h-24.2v-7.6h5.3v-2.5h-8v12.7h29.6V28.2h-8.1z" class="st0"/>
    <path id="XMLID_405_" d="M281.1 25.6h13.5v7.7h-5.4v2.5h8.1V23.1h-35v12.7h8.1v-2.5H265v-7.7h13.5v15.3h2.6z" class="st0"/>
    <path id="XMLID_406_" d="M267.7 30.7h5.4v7.6h-24.3v-7.6h5.4v-2.5h-8.1v12.7h29.7V28.2h-8.1z" class="st0"/>
  </g>
</svg>
