<svg xmlns="http://www.w3.org/2000/svg" viewBox="0 0 32 32"><style>.st0{fill:#fff}</style><g id="Art"><path d="M32 16.1C32 25 25.1 32 15.9 32 7.2 32 0 25 0 16.1 0 7 7.2 0 15.9 0 25.1 0 32 7 32 16.1z"/><path class="st0" d="M16 29.3c-3.5 0-6.9-1.4-9.4-3.9S2.7 19.5 2.7 16s1.4-6.9 3.9-9.4C9.1 4 12.5 2.7 16 2.7s6.9 1.4 9.4 3.9 3.9 5.9 3.9 9.4-1.4 6.9-3.9 9.4c-2.5 2.6-5.9 3.9-9.4 3.9z"/><path d="M16 28.3c-3.3 0-6.4-1.3-8.7-3.6S3.7 19.3 3.7 16 5 9.6 7.3 7.3C9.6 5 12.7 3.7 16 3.7s6.4 1.3 8.7 3.6c2.3 2.3 3.6 5.4 3.6 8.7s-1.3 6.4-3.6 8.7-5.4 3.6-8.7 3.6z"/><path class="st0" d="M19.6 17.6l4.6-3.5h-5.8l-2.4-6-2.4 6H7.8l4.9 3.5-2.6 6.3 5.9-3.4 5.9 3.4z"/></g></svg>